Coordinates
version=1
nRows=21
nColumns=12
inDegrees=yes

Units are S.I. units (second, meters, Newtons, ...)
Angles are in degrees

endheader
time	SC_y	SC_z	SC_x	AC_y	AC_z	AC_x	GH_y	GH_z	GH_yy	EL_x	PS_y
       0.0              -30.92          17.51          67.29          64.39          8.324         -4.691          30.66          70.65         -27.78          36.91          87.32
   0.01208              -30.92          17.51          67.29          64.39          8.319         -4.693          30.65          70.65         -27.77          36.92          87.31
   0.02417              -30.92          17.51          67.29          64.39          8.315         -4.695          30.65          70.65         -27.75          36.92           87.3
   0.03625              -30.93          17.51          67.29          64.39          8.311         -4.697          30.65          70.65         -27.74          36.92          87.29
   0.04833              -30.93          17.51          67.29          64.38          8.306         -4.699          30.65          70.65         -27.72          36.92          87.28
   0.06041              -30.94          17.51          67.29          64.38            8.3         -4.702          30.64          70.64         -27.71          36.92          87.26
    0.0725              -30.94          17.51          67.29          64.38          8.295         -4.704          30.64          70.64         -27.69          36.92          87.25
   0.08458              -30.95          17.52          67.29          64.38          8.289         -4.707          30.63          70.64         -27.67          36.92          87.23
   0.09666              -30.95          17.52          67.29          64.37          8.282          -4.71          30.63          70.64         -27.65          36.92          87.22
    0.1087              -30.96          17.52          67.29          64.37          8.275         -4.714          30.63          70.64         -27.63          36.92           87.2
    0.1208              -30.97          17.52          67.29          64.37          8.268         -4.717          30.62          70.63         -27.61          36.92          87.18
    0.1329              -30.97          17.52          67.29          64.37           8.26         -4.721          30.62          70.63         -27.59          36.92          87.16
     0.145              -30.98          17.52          67.29          64.36          8.252         -4.725          30.61          70.63         -27.56          36.92          87.14
    0.1571              -30.99          17.52          67.29          64.36          8.242         -4.729           30.6          70.63         -27.53          36.92          87.11
    0.1692               -31.0          17.53          67.29          64.36          8.232         -4.734           30.6          70.62          -27.5          36.93          87.09
    0.1812              -31.01          17.53          67.29          64.35          8.221         -4.739          30.59          70.62         -27.47          36.93          87.06
    0.1933              -31.02          17.53          67.29          64.35           8.21         -4.745          30.58          70.62         -27.43          36.93          87.03
    0.2054              -31.03          17.53          67.28          64.34          8.197         -4.751          30.57          70.61         -27.39          36.93           87.0
    0.2175              -31.04          17.54          67.28          64.34          8.183         -4.758          30.56          70.61         -27.35          36.93          86.96
    0.2296              -31.06          17.54          67.28          64.33          8.167         -4.765          30.55           70.6         -27.31          36.93          86.92
    0.2417              -31.07          17.54          67.28          64.32           8.15         -4.773          30.54           70.6         -27.25          36.93          86.88
